<mxfile host="app.diagrams.net" agent="Mozilla/5.0 (Windows NT 10.0; Win64; x64) AppleWebKit/537.36 (KHTML, like Gecko) Chrome/133.0.0.0 Safari/537.36" version="26.0.16">
  <diagram name="PÃ¡gina-1" id="mN0G4gR_RPd6-P-p1sG5">
    <mxGraphModel dx="880" dy="468" grid="1" gridSize="10" guides="1" tooltips="1" connect="1" arrows="1" fold="1" page="1" pageScale="1" pageWidth="827" pageHeight="1169" math="0" shadow="0">
      <root>
        <mxCell id="0" />
        <mxCell id="1" parent="0" />
        <mxCell id="RrEyOY4IfidvWUz3DTNb-4" style="edgeStyle=orthogonalEdgeStyle;rounded=0;orthogonalLoop=1;jettySize=auto;html=1;exitX=1;exitY=0.5;exitDx=0;exitDy=0;entryX=0;entryY=0.5;entryDx=0;entryDy=0;" edge="1" parent="1" source="RrEyOY4IfidvWUz3DTNb-1" target="RrEyOY4IfidvWUz3DTNb-3">
          <mxGeometry relative="1" as="geometry" />
        </mxCell>
        <mxCell id="RrEyOY4IfidvWUz3DTNb-1" value="&lt;b&gt;Cliente&lt;/b&gt;" style="rounded=0;whiteSpace=wrap;html=1;fillColor=#EA6B66;strokeColor=#005E2E;" vertex="1" parent="1">
          <mxGeometry x="40" y="180" width="150" height="40" as="geometry" />
        </mxCell>
        <mxCell id="RrEyOY4IfidvWUz3DTNb-2" value="&lt;b&gt;Cuenta&lt;/b&gt;" style="rounded=0;whiteSpace=wrap;html=1;fillColor=#EA6B66;strokeColor=#005E2E;" vertex="1" parent="1">
          <mxGeometry x="490" y="180" width="150" height="40" as="geometry" />
        </mxCell>
        <mxCell id="RrEyOY4IfidvWUz3DTNb-5" style="edgeStyle=orthogonalEdgeStyle;rounded=0;orthogonalLoop=1;jettySize=auto;html=1;exitX=1;exitY=0.5;exitDx=0;exitDy=0;entryX=0;entryY=0.5;entryDx=0;entryDy=0;" edge="1" parent="1" source="RrEyOY4IfidvWUz3DTNb-3" target="RrEyOY4IfidvWUz3DTNb-2">
          <mxGeometry relative="1" as="geometry" />
        </mxCell>
        <mxCell id="RrEyOY4IfidvWUz3DTNb-3" value="Tiene" style="rhombus;whiteSpace=wrap;html=1;fillColor=#f8cecc;strokeColor=light-dark(#b3b2f0, #d7817e);" vertex="1" parent="1">
          <mxGeometry x="310" y="160" width="80" height="80" as="geometry" />
        </mxCell>
        <mxCell id="RrEyOY4IfidvWUz3DTNb-6" value="1.N" style="text;html=1;align=center;verticalAlign=middle;resizable=0;points=[];autosize=1;strokeColor=none;fillColor=none;" vertex="1" parent="1">
          <mxGeometry x="187" y="177" width="40" height="30" as="geometry" />
        </mxCell>
        <mxCell id="RrEyOY4IfidvWUz3DTNb-7" value="N.1" style="text;html=1;align=center;verticalAlign=middle;resizable=0;points=[];autosize=1;strokeColor=none;fillColor=none;" vertex="1" parent="1">
          <mxGeometry x="438" y="177" width="40" height="30" as="geometry" />
        </mxCell>
        <mxCell id="RrEyOY4IfidvWUz3DTNb-8" value="1.N" style="text;html=1;align=center;verticalAlign=middle;resizable=0;points=[];autosize=1;strokeColor=none;fillColor=none;" vertex="1" parent="1">
          <mxGeometry x="320" y="240" width="40" height="30" as="geometry" />
        </mxCell>
      </root>
    </mxGraphModel>
  </diagram>
</mxfile>
